<svg xmlns="http://www.w3.org/2000/svg" xmlns:xlink="http://www.w3.org/1999/xlink" width="500" zoomAndPan="magnify" viewBox="0 0 375 374.999991" height="500" preserveAspectRatio="xMidYMid meet" version="1.0"><defs><g/><clipPath id="8efedfe90b"><path d="M 2.824219 2.824219 L 372.175781 2.824219 L 372.175781 372.175781 L 2.824219 372.175781 Z M 2.824219 2.824219 " clip-rule="nonzero"/></clipPath><clipPath id="79e59723ac"><path d="M 187.5 2.824219 C 85.507812 2.824219 2.824219 85.507812 2.824219 187.5 C 2.824219 289.492188 85.507812 372.175781 187.5 372.175781 C 289.492188 372.175781 372.175781 289.492188 372.175781 187.5 C 372.175781 85.507812 289.492188 2.824219 187.5 2.824219 Z M 187.5 2.824219 " clip-rule="nonzero"/></clipPath></defs><g clip-path="url(#8efedfe90b)"><g clip-path="url(#79e59723ac)"><path fill="#000000" d="M 2.824219 2.824219 L 372.175781 2.824219 L 372.175781 372.175781 L 2.824219 372.175781 Z M 2.824219 2.824219 " fill-opacity="1" fill-rule="nonzero"/></g></g><g fill="#ffffff" fill-opacity="1"><g transform="translate(136.1252, 300.427691)"><g><path d="M 45.828125 1.578125 C 76.171875 1.578125 100.515625 -21.5 100.515625 -56.265625 C 100.515625 -79.96875 93.875 -94.828125 63.53125 -129.921875 C 45.203125 -151.09375 42.046875 -157.421875 42.046875 -166.578125 C 42.046875 -179.546875 51.203125 -186.5 61.953125 -186.5 C 72.0625 -186.5 79.34375 -183.328125 91.34375 -176.375 L 91.34375 -215.890625 C 82.8125 -219.6875 72.703125 -222.84375 58.15625 -222.84375 C 26.546875 -222.84375 3.484375 -200.40625 3.484375 -165.3125 C 3.484375 -139.71875 13.59375 -124.21875 40.78125 -94.515625 C 59.734375 -73.96875 61.953125 -63.84375 61.953125 -56.578125 C 61.953125 -42.046875 53.109375 -34.765625 40.78125 -34.765625 C 29.078125 -34.765625 20.234375 -39.203125 6.640625 -47.09375 L 6.640625 -7.59375 C 17.703125 -2.21875 30.65625 1.578125 45.828125 1.578125 Z M 45.828125 1.578125 "/></g></g></g></svg>